<svg width="32" height="33" viewBox="0 0 32 33" fill="none" xmlns="http://www.w3.org/2000/svg">
<path fill-rule="evenodd" clip-rule="evenodd" d="M0 16.2659C0 7.45533 7.16344 0.312988 16 0.312988C24.8366 0.312988 32 7.45533 32 16.2659C32 25.0764 24.8366 32.2187 16 32.2187C7.16344 32.2187 0 25.0764 0 16.2659ZM16 8.28942C20.4 8.28942 24 11.8788 24 16.2659C24 20.2541 21.1 23.6441 17.1 24.2423V18.5591H19L19.4 16.2659H17.2V14.7703C17.2 14.172 17.5 13.5738 18.5 13.5738H19.5V11.5797C19.5 11.5797 18.6 11.3803 17.7 11.3803C15.9 11.3803 14.7 12.4771 14.7 14.4712V16.2659H12.7V18.5591H14.7V24.1426C10.9 23.5444 8 20.2541 8 16.2659C8 11.8788 11.6 8.28942 16 8.28942Z" fill="#C0B7E8"/>
</svg>
