<svg width="32" height="33" viewBox="0 0 32 33" fill="none" xmlns="http://www.w3.org/2000/svg">
<path id="twitter" fill-rule="evenodd" clip-rule="evenodd" d="M0 16.2659C0 7.45533 7.16344 0.312988 16 0.312988C24.8366 0.312988 32 7.45533 32 16.2659C32 25.0764 24.8366 32.2187 16 32.2187C7.16344 32.2187 0 25.0764 0 16.2659ZM22.1 11.7791C22.8 11.6794 23.4 11.5797 24 11.2806C23.6 11.9785 23 12.5768 22.3 12.9756C22.5 17.6617 19.1 22.7467 13 22.7467C11.2 22.7467 9.5 22.1485 8 21.2511C9.7 21.4505 11.5 20.952 12.7 20.0547C11.2 20.0547 10 19.0576 9.6 17.7614C10.1 17.8611 10.6 17.7614 11.1 17.6617C9.6 17.2629 8.5 15.867 8.5 14.3715C9 14.5709 9.5 14.7703 10 14.7703C8.6 13.7732 8.1 11.8788 9 10.3832C10.7 12.3773 13.1 13.6735 15.8 13.7732C15.3 11.7791 16.9 9.78501 19 9.78501C19.9 9.78501 20.8 10.1838 21.4 10.7821C22.2 10.5827 22.9 10.3832 23.5 9.98442C23.3 10.7821 22.8 11.3803 22.1 11.7791Z" fill="#C0B7E8"/>
</svg>
